<?xml version="1.0" encoding="utf-8"?>
<!-- Generator: Adobe Illustrator 17.1.0, SVG Export Plug-In . SVG Version: 6.00 Build 0)  -->
<!DOCTYPE svg PUBLIC "-//W3C//DTD SVG 1.1//EN" "http://www.w3.org/Graphics/SVG/1.1/DTD/svg11.dtd">
<svg version="1.1" id="Layer_1" xmlns="http://www.w3.org/2000/svg" xmlns:xlink="http://www.w3.org/1999/xlink" x="0px" y="0px"
	 viewBox="0 0 20 21" enable-background="new 0 0 20 21" xml:space="preserve">
<path fill="#8C8AB0" d="M7.2,6.8L0.3,18.8c-0.1,0.1-0.1,0.2-0.1,0.3l0,0.1l0,0.1l0.5,1.2l0,0.1l0.1,0c0.1,0,0.2,0.1,0.2,0.1l0.2,0
	l0.1-0.1l0.4-0.7L2,19.2l7-12l0.2-0.3L7.2,6.8L7.2,6.8z"/>
<polygon fill="#8C8AB0" points="11.5,4.6 11.2,6.8 11.2,7.5 17.4,18.3 19.4,18.3 "/>
<path fill="#8C8AB0" d="M19.8,19.1C19.8,19.1,19.8,19.1,19.8,19.1l0-0.1l-0.1-0.1h-0.2l-1.4,0H2.9c-0.3,0.4-0.7,1.2-1,1.7h16.7l0,0
	c0.2,0,0.4,0,0.6-0.1l0.1,0l0-0.1l0.5-1.1L19.8,19.1L19.8,19.1z"/>
<path fill="#8C8AB0" d="M7.2,6.9"/>
<polygon fill="#8C8AB0" points="13,9.1 12.6,8.8 11.3,7.5 11.2,7.4 11.2,7.4 11.2,0.9 11.2,0.7 11.4,0.7 12.8,0.7 13,0.7 13,0.9 
	13,8.6 "/>
<path fill="#8C8AB0" d="M7.3,7.2"/>
<polygon fill="#8C8AB0" points="9.1,3.3 9.1,1.2 8,1.2 8,2.1 "/>
<polygon fill="#8C8AB0" points="6.6,0.4 8.1,2.1 12.9,2.1 12.9,2 13.9,0.4 "/>
<path fill="#8C8AB0" d="M9.2,16.5c0,0-0.8,0.6-1.3,0.4c0,0,2.7,2.7,5.4,0.1c0,0,0.9-1.1,0.9-1.9L13.9,15c0,0-0.5,2.5-3.2,2.2
	C10.7,17.2,10,17.1,9.2,16.5z"/>
<path fill="#8C8AB0" d="M8.4,12.9c0,0-0.1-1,0.3-1.3c0,0-3.7,0.9-2.9,4.6c0,0,0.4,1.4,1.1,1.7l0.3-0.3c0,0-1.9-1.7-0.2-3.8
	C7,13.8,7.5,13.3,8.4,12.9z"/>
<path fill="#8C8AB0" d="M12,14c0,0,0.9,0.4,1,0.9c0,0,0.9-3.6-2.7-4.7c0,0-1.4-0.3-2,0.2l0.1,0.4c0,0,2.4-0.8,3.5,1.6
	C11.9,12.3,12.1,13,12,14z"/>
<path fill="#8C8AB0" d="M10.6,12.6C10.3,13,9.8,13,9.4,12.7c-0.4-0.3-0.4-0.9-0.1-1.2c0.3-0.3,0.9-0.4,1.2-0.1
	C10.9,11.7,10.9,12.3,10.6,12.6z"/>
<path fill="#8C8AB0" d="M8.4,16.1c-0.3,0.4-0.9,0.4-1.2,0.1c-0.4-0.3-0.4-0.9-0.1-1.2c0.3-0.4,0.9-0.4,1.2-0.1
	C8.7,15.2,8.7,15.8,8.4,16.1z"/>
<path fill="#8C8AB0" d="M12.4,16.3c-0.3,0.3-0.9,0.4-1.2,0.1c-0.4-0.3-0.4-0.9-0.1-1.2c0.3-0.4,0.9-0.4,1.2-0.1
	C12.7,15.4,12.8,15.9,12.4,16.3z"/>
</svg>
